<svg width="40" height="40" viewBox="0 0 40 40" fill="none" xmlns="http://www.w3.org/2000/svg">
<rect width="36" height="36" transform="translate(2 2)" fill="#0968FF"/>
<g clip-path="url(#clip0)">
<path d="M12.4342 19.8951C12.3253 19.8153 12.1978 19.7468 12.0516 19.6896C11.9054 19.6326 11.732 19.5812 11.5314 19.5355C11.4741 19.5241 11.4153 19.5141 11.3552 19.5055C11.295 19.497 11.2333 19.487 11.1703 19.4755C11.0843 19.4528 11.0054 19.4142 10.9339 19.3599C10.8621 19.3058 10.8264 19.2302 10.8264 19.133C10.8264 19.0531 10.8636 18.9733 10.9381 18.8933C11.0126 18.8134 11.1101 18.7734 11.2305 18.7734C11.3509 18.7734 11.464 18.8048 11.5701 18.8676C11.6761 18.9305 11.7464 19.0131 11.7808 19.1159L12.7007 18.8076C12.6548 18.6535 12.5847 18.5137 12.4901 18.388C12.3955 18.2625 12.2823 18.154 12.1505 18.0626C12.0185 17.9714 11.8724 17.8999 11.712 17.8486C11.5515 17.7972 11.3823 17.7715 11.2047 17.7715C10.9926 17.7715 10.7934 17.8087 10.6072 17.8828C10.4208 17.9571 10.2574 18.0556 10.1171 18.1783C9.97654 18.3011 9.86621 18.4452 9.786 18.6107C9.70572 18.7763 9.66567 18.9504 9.66567 19.133C9.66567 19.2015 9.66995 19.2929 9.67854 19.407C9.68713 19.5213 9.72866 19.6412 9.80322 19.7667C9.87763 19.8923 9.9967 20.0165 10.1601 20.1392C10.3234 20.262 10.5598 20.3605 10.8694 20.4346C10.9668 20.4632 11.0528 20.4789 11.1273 20.4817C11.2017 20.4846 11.2963 20.5088 11.4111 20.5545C11.4913 20.5831 11.5628 20.6216 11.626 20.6701C11.689 20.7186 11.7206 20.7715 11.7206 20.8285C11.7206 20.9085 11.6746 20.9941 11.583 21.0854C11.4913 21.1767 11.3479 21.2224 11.1531 21.2224C10.964 21.2224 10.8149 21.1868 10.706 21.1153C10.5971 21.044 10.5169 20.9655 10.4653 20.8798C10.3449 20.9427 10.2044 21.0126 10.044 21.0897C9.88343 21.1667 9.73725 21.2367 9.60547 21.2994C9.65704 21.4364 9.73576 21.5606 9.84189 21.6719C9.94791 21.7833 10.0726 21.8789 10.2159 21.9588C10.3591 22.0388 10.5154 22.1016 10.6845 22.1472C10.8535 22.1928 11.027 22.2157 11.2047 22.2157C11.4397 22.2157 11.6604 22.18 11.8668 22.1086C12.0731 22.0373 12.2537 21.9389 12.4084 21.8132C12.5632 21.6877 12.6849 21.5422 12.7738 21.3765C12.8626 21.211 12.9071 21.034 12.9071 20.8456C12.9071 20.4346 12.7494 20.1178 12.4342 19.8951Z" fill="white"/>
<path d="M19.5618 15.7474C19.378 15.7474 19.2229 15.8117 19.0966 15.9404C18.9702 16.0692 18.9072 16.225 18.9072 16.408C18.9072 16.5912 18.9702 16.7456 19.0966 16.8713C19.2229 16.9972 19.378 17.0601 19.5618 17.0601C19.7456 17.0601 19.9006 16.9972 20.027 16.8713C20.1533 16.7456 20.2165 16.5912 20.2165 16.408C20.2165 16.225 20.1533 16.0692 20.027 15.9404C19.9006 15.8117 19.7456 15.7474 19.5618 15.7474Z" fill="white"/>
<path d="M16.3203 17.8743L15.4605 20.9484L14.5749 17.8743H13.3539L14.6351 22.1215H16.1311L16.7502 20.075L16.819 19.467L16.8791 20.075L17.4982 22.1215H17.8285L18.1673 20.9602L17.309 17.8743H16.3203Z" fill="white"/>
<path d="M20.5047 19.1495L20.6793 19.7533L21.03 20.9655L21.0315 20.9602L21.3704 22.1215H20.196L19.5585 20.0082L18.9149 17.8743H20.1358L20.5047 19.1495Z" fill="white"/>
<path d="M30.803 18.7648C30.7054 18.5366 30.5808 18.3567 30.429 18.2254C30.277 18.0941 30.1122 18.0027 29.9345 17.9513C29.7568 17.9 29.5907 17.8743 29.4359 17.8743C29.3211 17.8743 29.2022 17.8873 29.079 17.9132C28.9557 17.9392 28.8368 17.9795 28.7222 18.034C28.6075 18.0888 28.5015 18.1578 28.4041 18.2413C28.3066 18.3248 28.2235 18.4211 28.1547 18.5304C28.0745 18.4039 27.9842 18.2988 27.8839 18.2153C27.8632 18.1981 27.8421 18.1819 27.821 18.1659V18.1677C27.6891 18.0672 27.5482 17.9948 27.398 17.9513C27.2203 17.9 27.0541 17.8743 26.8993 17.8743C26.7846 17.8743 26.6657 17.8873 26.5425 17.9132C26.4192 17.9392 26.3003 17.9795 26.1857 18.034C26.071 18.0888 25.9649 18.1578 25.8676 18.2413C25.77 18.3248 25.6871 18.4211 25.6182 18.5304C25.5379 18.4039 25.4476 18.2988 25.3474 18.2153C25.3267 18.1981 25.3056 18.1819 25.2844 18.1659C25.2034 18.105 25.1199 18.0536 25.0336 18.0125C24.9246 17.9607 24.8128 17.9247 24.6982 17.9045C24.5835 17.8845 24.4747 17.8743 24.3715 17.8743C24.1708 17.8743 23.9831 17.9089 23.8084 17.9779C23.6334 18.047 23.4802 18.1448 23.3484 18.2714L23.1764 17.8743H22.1618V22.1215H23.3484V19.8755C23.3484 19.551 23.4141 19.3119 23.5461 19.1582C23.6779 19.0045 23.8269 18.9275 23.9932 18.9275C24.2224 18.9275 24.3973 18.9959 24.5177 19.1325C24.638 19.2692 24.6982 19.5111 24.6982 19.8584V22.1215H25.2844H25.8848V19.8499C25.8848 19.6677 25.9033 19.5169 25.9406 19.3973C25.9779 19.2777 26.028 19.1838 26.0911 19.1154C26.1541 19.0471 26.2257 18.9987 26.3061 18.9702C26.3863 18.9418 26.4665 18.9275 26.5468 18.9275C26.6328 18.9275 26.7173 18.9431 26.8004 18.9745C26.8835 19.0058 26.9566 19.0585 27.0197 19.1325C27.0827 19.2067 27.1328 19.3034 27.1702 19.4229C27.2074 19.5425 27.2261 19.6876 27.2261 19.8584V22.1215H27.821H28.4126H28.4213V19.8499C28.4213 19.6677 28.4398 19.5169 28.4772 19.3973C28.5144 19.2777 28.5645 19.1838 28.6276 19.1154C28.6907 19.0471 28.7623 18.9987 28.8426 18.9702C28.9228 18.9418 29.003 18.9275 29.0833 18.9275C29.1694 18.9275 29.2538 18.9431 29.337 18.9745C29.42 19.0058 29.4931 19.0585 29.5562 19.1325C29.6192 19.2067 29.6694 19.3034 29.7067 19.4229C29.744 19.5425 29.7626 19.6876 29.7626 19.8584V22.1215H30.9491V19.6382C30.9491 19.2843 30.9004 18.9932 30.803 18.7648Z" fill="white"/>
</g>
<defs>
<clipPath id="clip0">
<rect width="26.73" height="9.81" fill="white" transform="translate(6.67999 15.14)"/>
</clipPath>
</defs>
</svg>
