<?xml version="1.0" encoding="UTF-8" standalone="no"?>
<!-- Created with Inkscape (http://www.inkscape.org/) -->

<svg
        xmlns:dc="http://purl.org/dc/elements/1.1/"
        xmlns:cc="http://creativecommons.org/ns#"
        xmlns:rdf="http://www.w3.org/1999/02/22-rdf-syntax-ns#"
        xmlns="http://www.w3.org/2000/svg"
        xmlns:sodipodi="http://sodipodi.sourceforge.net/DTD/sodipodi-0.dtd"
        xmlns:inkscape="http://www.inkscape.org/namespaces/inkscape"
        version="1.1"
        width="140"
        height="140"
        id="svg2"
        xml:space="preserve"
        sodipodi:docname="pluginIcon.svg"
        inkscape:version="0.92.3 (2405546, 2018-03-11)"><sodipodi:namedview
     pagecolor="#ffffff"
     bordercolor="#666666"
     borderopacity="1"
     objecttolerance="10"
     gridtolerance="10"
     guidetolerance="10"
     inkscape:pageopacity="0"
     inkscape:pageshadow="2"
     inkscape:window-width="1920"
     inkscape:window-height="1148"
     id="namedview51"
     showgrid="false"
     inkscape:snap-bbox="true"
     inkscape:snap-bbox-edge-midpoints="true"
     showguides="true"
     inkscape:guide-bbox="true"
     inkscape:zoom="3.9658435"
     inkscape:cx="50.490042"
     inkscape:cy="53.882548"
     inkscape:window-x="-8"
     inkscape:window-y="-8"
     inkscape:window-maximized="1"
     inkscape:current-layer="svg2"><sodipodi:guide
       position="7.0602888,70.098581"
       orientation="0,1"
       id="guide4744"
       inkscape:locked="false" /><sodipodi:guide
       position="70.098581,151.54405"
       orientation="1,0"
       id="guide4746"
       inkscape:locked="false" /></sodipodi:namedview><metadata
     id="metadata8"><rdf:RDF><cc:Work
         rdf:about=""><dc:format>image/svg+xml</dc:format><dc:type
           rdf:resource="http://purl.org/dc/dcmitype/StillImage" /><dc:title></dc:title></cc:Work></rdf:RDF></metadata><defs
     id="defs6"><clipPath
       id="clipPath18"><path
         d="M 0,1278.57 V 0 h 1637.54 v 1278.57 z"
         inkscape:connector-curvature="0"
         id="path20" /></clipPath></defs><g
     id="g4742"
     transform="translate(-36.69512,2.921359)"><path
       style="fill:#1c63b7;fill-opacity:1;fill-rule:nonzero;stroke:none;stroke-width:0.125"
       id="path22"
       inkscape:connector-curvature="0"
       d="m 120.63237,49.4285 19.48388,-20.171 20.1825,19.5075 -19.485,20.17425 z M 139.71,17.19125 108.31788,49.727875 141.11875,81.4295 172.5325,48.85575 139.71,17.19125" /><path
       style="fill:#a7a5a6;fill-opacity:1;fill-rule:nonzero;stroke:none;stroke-width:0.125"
       id="path24"
       inkscape:connector-curvature="0"
       d="m 172.5325,48.85575 -2.3,5.568875 -31.4075,32.5435 -32.80113,-31.706125 2.28275,-5.53175 32.80088,31.702125 31.425,-32.576625" /><path
       style="fill:#a7a5a6;fill-opacity:1;fill-rule:nonzero;stroke:none;stroke-width:0.125"
       id="path26"
       inkscape:connector-curvature="0"
       d="M 122.34862,51.079375 137.9825,34.8865 l 18.48,17.8535 3.84375,-3.975 -20.18,-19.52125 -19.49388,20.18475 1.71625,1.650875" /><path
       style="fill:#ed1c24;fill-opacity:1;fill-rule:nonzero;stroke:none;stroke-width:0.125"
       id="path28"
       inkscape:connector-curvature="0"
       d="M 89.0835,19.11125 104.8105,46.9935 70.38575,57.324 Z M 88.356875,1.9975 54.360375,71.47975 116.95063,52.6995 88.356875,1.9975" /><path
       style="fill:#a7a5a6;fill-opacity:1;fill-rule:nonzero;stroke:none;stroke-width:0.125"
       id="path30"
       inkscape:connector-curvature="0"
       d="M 54.36675,71.455875 88.361875,1.9725 l -5.57375,-1.96875 -33.84675,69.023875 5.425375,2.42825" /><path
       style="fill:#a7a5a6;fill-opacity:1;fill-rule:nonzero;stroke:none;stroke-width:0.125"
       id="path32"
       inkscape:connector-curvature="0"
       d="M 71.828625,54.363125 70.38575,57.324 104.8105,46.9935 89.089375,19.08375 l -1.19725,2.4475 0.178125,0.31375 13.3345,23.647 -29.23675,8.7715 -0.339375,0.09962" /><path
       style="fill:#a7a5a6;fill-opacity:1;fill-rule:nonzero;stroke:none;stroke-width:0.125"
       id="path34"
       inkscape:connector-curvature="0"
       d="M 98.9355,41.10475 C 93.066375,43.704375 88.836375,48.119 87.722125,53.219 L 87.6025,52.779125 c -0.212375,-0.857 -0.335375,-1.735875 -0.36525,-2.63675 -0.171875,-5.588375 3.36425,-10.664 8.964875,-13.930125 l 2.733375,4.8925" /><path
       style="fill:#ffffff;fill-opacity:1;fill-rule:nonzero;stroke:none;stroke-width:0.125"
       id="path36"
       inkscape:connector-curvature="0"
       d="M 93.024875,30.65 C 83.94925,35.079375 77.995625,42.7425 78.26075,51.235625 78.6645,64.246375 93.388625,74.3485 111.14988,73.79275 128.9125,73.238625 142.9775,62.244375 142.575,49.234625 142.425,44.33425 140.29625,39.89925 136.68625,36.239 l -5.3825,5.571875 c 1.39125,2.098625 2.1625,4.388625 2.2425,6.891625 0.29,9.367625 -9.83925,17.28075 -22.62587,17.680125 C 98.13325,66.781 87.53025,59.5105 87.23725,50.142375 87.065375,44.5565 90.59575,39.49 96.181625,36.2235 Z m 12.731995,2.205 c 1.333,-0.21875 2.70163,-0.35125 4.10888,-0.395 4.67675,-0.14625 9.10737,0.75625 12.80512,2.390375 l 4.71663,-4.891625 c -5.12438,-2.26125 -11.222,-3.48125 -17.70338,-3.28 -2.3965,0.075 -4.72812,0.3375 -6.96787,0.77375 l 3.04062,5.4025" /><path
       style="fill:#a7a5a6;fill-opacity:1;fill-rule:nonzero;stroke:none;stroke-width:0.125"
       id="path38"
       inkscape:connector-curvature="0"
       d="m 131.29,41.79375 c 1.37625,2.086875 2.1775,4.421875 2.25625,6.90875 0.0288,0.90125 -0.0412,1.791 -0.2,2.6635 l -0.0925,0.421875 c -0.7675,-2.685 -2.4075,-5.1235 -4.69375,-7.143 l 2.73,-2.851125" /><path
       style="fill:#a7a5a6;fill-opacity:1;fill-rule:nonzero;stroke:none;stroke-width:0.125"
       id="path40"
       inkscape:connector-curvature="0"
       d="m 109.00975,38.695625 c 0.34812,-0.022 0.69725,-0.03912 1.05025,-0.05175 2.8355,-0.08788 5.61288,0.231375 8.14562,0.838875 l 4.46525,-4.632375 C 118.96388,33.20375 114.5615,32.31375 109.86575,32.46 c -1.40625,0.04375 -2.77688,0.18 -4.10888,0.395 l 3.25288,5.840625" /><path
       style="fill:#a7a5a6;fill-opacity:1;fill-rule:nonzero;stroke:none;stroke-width:0.125"
       id="path42"
       inkscape:connector-curvature="0"
       d="m 142.575,49.234625 c 0.4025,13.00975 -13.6625,24.004 -31.42513,24.558125 C 93.388625,74.3485 78.6645,64.246375 78.26075,51.235625 l 0.206,6.565 C 78.869625,70.807375 93.597125,80.9065 111.35738,80.35425 129.1175,79.801125 143.19,68.8045 142.78125,55.797125 l -0.20625,-6.5625" /><path
       style="fill:#1c63b7;fill-opacity:1;fill-rule:nonzero;stroke:none;stroke-width:0.125"
       id="path94"
       inkscape:connector-curvature="0"
       d="M 50.006375,92.724875 H 80.55425 L 78.331,103.18875 H 63.69625 l -0.910625,4.28175 H 77.395 l -2.222625,10.46187 H 60.563 l -3.182625,14.96638 H 41.46725 l 8.539125,-40.173875" /><path
       style="fill:#1c63b7;fill-opacity:1;fill-rule:nonzero;stroke:none;stroke-width:0.125"
       id="path96"
       inkscape:connector-curvature="0"
       d="m 85.5615,92.724875 h 23.75875 c 8.6265,0 13.13337,2.61575 11.522,10.184125 -0.98138,4.61912 -3.67188,8.125 -9.99113,9.56787 l -0.0235,0.11225 c 3.82475,0.336 5.57376,2.05913 5.70075,5.11963 0.15713,3.44975 -1.15975,9.12362 -0.61287,15.19 H 100.336 c -0.30763,-3.00488 0.2685,-8.066 0.44525,-11.51813 0.0927,-2.00187 -0.74313,-2.78075 -3.30475,-2.78075 H 95.642125 L 92.6015,132.89875 H 77.023 Z m 13.353,16.748995 c 3.062,0 5.51175,-1.0595 6.15138,-4.0625 0.626,-2.95062 -1.30125,-3.561 -4.4165,-3.561 h -1.448755 l -1.617625,7.6235 h 1.3315" /><path
       style="fill:#1c63b7;fill-opacity:1;fill-rule:nonzero;stroke:none;stroke-width:0.125"
       id="path98"
       inkscape:connector-curvature="0"
       d="m 160.5425,118.04325 c -2.355,11.07175 -12.23,15.91312 -22.1875,15.91312 -14.07625,0 -18.76763,-8.56887 -16.05913,-21.31112 2.2695,-12.5205 11.52538,-20.9765 25.10163,-20.9765 10.1275,0 17.8175,4.11625 15.3675,15.91312 h -14.5725 c 0.74125,-4.56162 -0.735,-5.45412 -2.68375,-5.45412 -4.1175,0 -5.40875,4.231 -6.7775,10.686 -1.30125,6.11962 -1.9375,10.67875 2.06875,10.67875 2.05875,0 3.70875,-1.21825 4.8325,-5.44925 h 14.91" /><path
       style="fill:#1e59ae;fill-opacity:1;fill-rule:nonzero;stroke:none;stroke-width:0.125"
       id="path100"
       inkscape:connector-curvature="0"
       d="m 157.73125,130.52862 h 0.4725 c 0.29625,0 0.525,-0.0459 0.525,-0.38137 0,-0.29488 -0.315,-0.34075 -0.55125,-0.34075 h -0.44625 z m -0.5575,-1.1485 H 158.21 c 0.68875,0 1.07625,0.21588 1.07625,0.8135 0,0.50488 -0.315,0.70263 -0.72125,0.73488 l 0.73375,1.20025 h -0.57 l -0.67,-1.17388 h -0.3275 v 1.17388 h -0.5575 z m 0.9775,3.3125 c 1.0175,0 1.85,-0.8125 1.85,-1.934 0,-1.11625 -0.8325,-1.92387 -1.85,-1.92387 -1.03125,0 -1.85,0.80762 -1.85,1.92387 0,1.1215 0.81875,1.934 1.85,1.934 z m 0,-4.38125 c 1.3325,0 2.51875,0.9575 2.51875,2.44725 0,1.49513 -1.18625,2.459 -2.51875,2.459 -1.33125,0 -2.52,-0.96387 -2.52,-2.459 0,-1.48975 1.18875,-2.44725 2.52,-2.44725" /></g></svg>